<?xml version="1.0" encoding="utf-8"?>
<!-- Generator: Adobe Illustrator 16.0.0, SVG Export Plug-In . SVG Version: 6.00 Build 0)  -->
<!DOCTYPE svg PUBLIC "-//W3C//DTD SVG 1.1//EN" "http://www.w3.org/Graphics/SVG/1.1/DTD/svg11.dtd">
<svg version="1.1" id="Layer_1" xmlns="http://www.w3.org/2000/svg" xmlns:xlink="http://www.w3.org/1999/xlink" x="0px" y="0px"
	 width="126px" height="126px" viewBox="0 0 126 126" enable-background="new 0 0 126 126" xml:space="preserve">
<path stroke="#6D6E70" stroke-width="0" stroke-linecap="round" stroke-linejoin="round" d="M100.517,25.488
	C79.829,4.799,46.169,4.799,25.486,25.483C4.798,46.169,4.8,79.829,25.488,100.517c20.682,20.684,54.341,20.684,75.027-0.004
	C121.201,79.829,121.199,46.171,100.517,25.488z M94.728,94.728c-17.494,17.494-45.962,17.496-63.455,0.002
	c-17.498-17.497-17.496-45.966,0-63.46c17.493-17.493,45.959-17.495,63.457,0.002C112.224,48.766,112.222,77.235,94.728,94.728z
	 M85.61,81c0,1.921-1.558,3.478-3.479,3.478H43.873c-1.921,0-3.479-1.557-3.479-3.478s1.558-3.478,3.479-3.478h38.259
	C84.052,77.522,85.61,79.079,85.61,81z M43.537,51.321l-5.182-5.182c-1.229-1.229-1.229-3.222,0-4.451
	c1.229-1.229,3.222-1.229,4.451,0l9.456,9.455c0.014,0.014,0.023,0.031,0.037,0.045c1.161,1.127,1.885,2.702,1.885,4.447
	c0,3.426-2.777,6.203-6.2,6.203c-3.423,0-6.201-2.777-6.201-6.203C41.783,53.958,42.454,52.438,43.537,51.321z M87.644,41.689
	c1.229,1.229,1.229,3.222,0,4.451l-5.182,5.182c1.083,1.117,1.754,2.637,1.754,4.315c0,3.426-2.777,6.203-6.201,6.203
	c-3.423,0-6.2-2.777-6.2-6.203c0-1.745,0.724-3.32,1.885-4.447c0.014-0.014,0.022-0.031,0.037-0.045l9.456-9.455
	C84.422,40.46,86.415,40.46,87.644,41.689z"/>
</svg>
