<?xml version="1.0" encoding="utf-8"?>
<!-- Generator: Adobe Illustrator 16.0.0, SVG Export Plug-In . SVG Version: 6.00 Build 0)  -->
<!DOCTYPE svg PUBLIC "-//W3C//DTD SVG 1.1//EN" "http://www.w3.org/Graphics/SVG/1.1/DTD/svg11.dtd">
<svg version="1.1" id="Layer_1" xmlns="http://www.w3.org/2000/svg" xmlns:xlink="http://www.w3.org/1999/xlink" x="0px" y="0px"
	 width="126px" height="126px" viewBox="0 0 126 126" enable-background="new 0 0 126 126" xml:space="preserve">
<path d="M25.486,25.483C4.799,46.169,4.801,79.829,25.488,100.517c20.682,20.684,54.341,20.684,75.026-0.004
	c20.686-20.684,20.684-54.341,0.002-75.024C79.829,4.799,46.17,4.799,25.486,25.483z M94.728,94.728
	c-17.493,17.494-45.961,17.496-63.454,0.002c-17.498-17.497-17.496-45.966,0-63.46c17.493-17.493,45.959-17.495,63.456,0.002
	C112.224,48.766,112.222,77.235,94.728,94.728z M64.061,69.342c10.084,0,19.084,5.742,22.927,14.629
	c0.658,1.521-0.041,3.287-1.563,3.944c-1.52,0.66-3.285-0.042-3.943-1.563c-2.894-6.689-9.731-11.011-17.421-11.011
	c-7.868,0-14.747,4.319-17.523,11.004c-0.479,1.154-1.596,1.85-2.771,1.85c-0.384,0-0.773-0.074-1.15-0.23
	c-1.53-0.636-2.255-2.392-1.619-3.921C44.706,75.113,53.76,69.342,64.061,69.342z M43.211,48.641c0-3.423,2.777-6.201,6.201-6.201
	c3.423,0,6.199,2.777,6.199,6.201c0,3.426-2.776,6.203-6.199,6.203C45.988,54.844,43.211,52.067,43.211,48.641z M71.328,48.641
	c0-3.423,2.78-6.201,6.202-6.201c3.424,0,6.201,2.777,6.201,6.201c0,3.426-2.777,6.203-6.201,6.203
	C74.108,54.844,71.328,52.067,71.328,48.641z M30.558,58.038c2.374-2.483,8.499-2.301,8.499-2.301
	c-1.581,2.289-1.902,4.191-1.902,4.191c-0.375,2.156-1.542,3.376-1.542,3.376c-2.564,2.684-5.211,0.11-5.211,0.11
	C27.798,60.926,30.558,58.038,30.558,58.038z M30.964,73.663c1.652-1.729,5.917-1.602,5.917-1.602
	c-1.101,1.593-1.325,2.917-1.325,2.917c-0.261,1.501-1.073,2.351-1.073,2.351c-1.785,1.869-3.628,0.076-3.628,0.076
	C29.042,75.674,30.964,73.663,30.964,73.663z"/>
</svg>
