<?xml version="1.0" encoding="utf-8"?>
<!-- Generator: Adobe Illustrator 16.0.0, SVG Export Plug-In . SVG Version: 6.00 Build 0)  -->
<!DOCTYPE svg PUBLIC "-//W3C//DTD SVG 1.1//EN" "http://www.w3.org/Graphics/SVG/1.1/DTD/svg11.dtd">
<svg version="1.1" id="Layer_1" xmlns="http://www.w3.org/2000/svg" xmlns:xlink="http://www.w3.org/1999/xlink" x="0px" y="0px"
	 width="126px" height="126px" viewBox="0 0 126 126" enable-background="new 0 0 126 126" xml:space="preserve">
<path stroke="#6D6E70" stroke-width="0" stroke-linecap="round" stroke-linejoin="round" d="M25.486,25.483
	C4.798,46.17,4.8,79.829,25.488,100.517c20.682,20.685,54.34,20.685,75.026-0.004c20.686-20.684,20.684-54.341,0.002-75.024
	C79.828,4.8,46.17,4.8,25.486,25.483z M94.728,94.728c-17.493,17.494-45.962,17.496-63.455,0.003
	c-17.498-17.497-17.495-45.966,0-63.46c17.493-17.493,45.96-17.495,63.457,0.002C112.224,48.767,112.222,77.235,94.728,94.728z
	 M84.688,87.521c-22.713,20.02-43.377,0-43.377,0c0-11.55,9.711-20.913,21.688-20.913S84.688,75.971,84.688,87.521z M43.544,47.642
	c0-2.688,2.181-4.868,4.867-4.868c2.688,0,4.867,2.181,4.867,4.868c0,2.689-2.18,4.87-4.867,4.87
	C45.725,52.512,43.544,50.331,43.544,47.642z M86.397,47.642c0,4.347-3.524,7.87-7.867,7.87s-7.87-3.523-7.87-7.87
	c0-4.344,3.527-7.868,7.87-7.868S86.397,43.298,86.397,47.642z"/>
</svg>
