<?xml version="1.0" encoding="utf-8"?>
<!-- Generator: Adobe Illustrator 17.1.0, SVG Export Plug-In . SVG Version: 6.00 Build 0)  -->
<!DOCTYPE svg PUBLIC "-//W3C//DTD SVG 1.1//EN" "http://www.w3.org/Graphics/SVG/1.1/DTD/svg11.dtd">
<svg version="1.1" id="Layer_1" xmlns="http://www.w3.org/2000/svg" xmlns:xlink="http://www.w3.org/1999/xlink" x="0px" y="0px"
	 width="126px" height="126px" viewBox="0 0 126 126" enable-background="new 0 0 126 126" xml:space="preserve">
<path fill="#4A90E2" d="M100.5,100.5c20.7-20.7,20.7-54.3,0-75c-20.7-20.7-54.3-20.7-75,0c-20.7,20.7-20.7,54.3,0,75
	C46.2,121.2,79.8,121.2,100.5,100.5z M31.3,31.3c17.5-17.5,46-17.5,63.5,0c17.5,17.5,17.5,46,0,63.5c-17.5,17.5-46,17.5-63.5,0
	C13.8,77.2,13.8,48.8,31.3,31.3z M31.4,48.8v-0.4c0-4.8,3.4-8.8,7.6-8.8h13c3.4,0,6.3,2.6,7.2,6.1h8.4c1-3.5,3.8-6.1,7.2-6.1h13
	c4.2,0,7.6,3.9,7.6,8.8v0.4c0,4.8-3.4,8.8-7.6,8.8h-13c-4.1,0-7.5-3.8-7.6-8.5h-7.7c-0.1,4.7-3.5,8.5-7.6,8.5H39
	C34.8,57.6,31.4,53.7,31.4,48.8z M86,74c-3.8,8.9-12.8,14.6-22.9,14.6C52.8,88.7,43.7,82.9,40,74c-0.6-1.5,0.1-3.3,1.6-3.9
	c0.4-0.2,0.8-0.2,1.2-0.2c1.2,0,2.3,0.7,2.8,1.8c2.8,6.7,9.7,11,17.5,11c7.7,0,14.5-4.3,17.4-11c0.7-1.5,2.4-2.2,3.9-1.6
	C85.9,70.8,86.6,72.5,86,74z"/>
</svg>
