<?xml version="1.0" encoding="utf-8"?>
<!-- Generator: Adobe Illustrator 17.1.0, SVG Export Plug-In . SVG Version: 6.00 Build 0)  -->
<!DOCTYPE svg PUBLIC "-//W3C//DTD SVG 1.1//EN" "http://www.w3.org/Graphics/SVG/1.1/DTD/svg11.dtd">
<svg version="1.1" id="Layer_1" xmlns="http://www.w3.org/2000/svg" xmlns:xlink="http://www.w3.org/1999/xlink" x="0px" y="0px"
	 width="126px" height="126px" viewBox="0 0 126 126" enable-background="new 0 0 126 126" xml:space="preserve">
<path fill="#4A90E2" d="M100.5,25.5c-20.7-20.7-54.3-20.7-75,0c-20.7,20.7-20.7,54.3,0,75c20.7,20.7,54.3,20.7,75,0
	C121.2,79.8,121.2,46.2,100.5,25.5z M94.7,94.7c-17.5,17.5-46,17.5-63.5,0c-17.5-17.5-17.5-46,0-63.5c17.5-17.5,46-17.5,63.5,0
	C112.2,48.8,112.2,77.2,94.7,94.7z M89,71c0.3,0.4,0.3,0.9,0.1,1.4c-4.3,9.9-14.3,16.3-25.6,16.3c-11.5,0-21.6-6.4-25.7-16.4
	c-0.2-0.4-0.1-0.9,0.1-1.3c0.3-0.4,0.7-0.6,1.2-0.6c0,0,0,0,0,0l48.6,0.1C88.3,70.4,88.8,70.6,89,71z M39,53.9
	c-0.1-0.1-0.1-0.2-0.1-0.4c0-0.2,0.1-0.4,0.2-0.5l7.7-9.8c0.2-0.2,0.4-0.3,0.6-0.3s0.5,0.1,0.6,0.3l7.7,9.8c0.2,0.2,0.2,0.6,0.1,0.9
	c-0.1,0.3-0.4,0.5-0.7,0.5h-3.6c-0.2,0-0.4-0.1-0.5-0.2l-3.7-4.7l-3.7,4.7c-0.1,0.1-0.3,0.2-0.5,0.2h-3.6
	C39.4,54.3,39.1,54.2,39,53.9z M71.1,53.9C71,53.8,71,53.6,71,53.5c0-0.2,0.1-0.4,0.2-0.5l7.7-9.8c0.2-0.2,0.4-0.3,0.6-0.3
	s0.5,0.1,0.6,0.3l7.7,9.8c0.2,0.2,0.2,0.6,0.1,0.9c-0.1,0.3-0.4,0.5-0.7,0.5h-3.6c-0.2,0-0.4-0.1-0.5-0.2l-3.7-4.7l-3.7,4.7
	c-0.1,0.1-0.3,0.2-0.5,0.2h-3.6C71.5,54.3,71.2,54.2,71.1,53.9z"/>
</svg>
