<?xml version="1.0" encoding="utf-8"?>
<!-- Generator: Adobe Illustrator 17.1.0, SVG Export Plug-In . SVG Version: 6.00 Build 0)  -->
<!DOCTYPE svg PUBLIC "-//W3C//DTD SVG 1.1//EN" "http://www.w3.org/Graphics/SVG/1.1/DTD/svg11.dtd">
<svg version="1.1" id="Layer_1" xmlns="http://www.w3.org/2000/svg" xmlns:xlink="http://www.w3.org/1999/xlink" x="0px" y="0px"
	 width="126px" height="126px" viewBox="0 0 126 126" enable-background="new 0 0 126 126" xml:space="preserve">
<path fill="#4A90E2" d="M100.5,25.5c-20.7-20.7-54.3-20.7-75,0c-20.7,20.7-20.7,54.3,0,75c20.7,20.7,54.3,20.7,75,0
	C121.2,79.8,121.2,46.2,100.5,25.5z M94.7,94.7c-17.5,17.5-46,17.5-63.5,0c-17.5-17.5-17.5-46,0-63.5c17.5-17.5,46-17.5,63.5,0
	C112.2,48.8,112.2,77.2,94.7,94.7z M71.3,48.6c0-1.2,2.8-2.2,6.2-2.2c3.4,0,6.2,1,6.2,2.2c0,1.2-2.8,2.2-6.2,2.2
	C74.1,50.8,71.3,49.8,71.3,48.6z M86,74c-3.8,8.9-12.8,14.6-22.9,14.6C52.8,88.7,43.7,82.9,40,74c-0.6-1.5,0.1-3.3,1.6-3.9
	c0.4-0.2,0.8-0.2,1.2-0.2c1.2,0,2.3,0.7,2.8,1.8c2.8,6.7,9.7,11,17.5,11c7.7,0,14.5-4.3,17.4-11c0.7-1.5,2.4-2.2,3.9-1.6
	C85.9,70.8,86.6,72.5,86,74z M43.2,48.6c0-3.4,2.8-6.2,6.2-6.2c3.4,0,6.2,2.8,6.2,6.2c0,3.4-2.8,6.2-6.2,6.2
	C46,54.8,43.2,52.1,43.2,48.6z"/>
</svg>
