<?xml version="1.0" encoding="utf-8"?>
<!-- Generator: Adobe Illustrator 17.1.0, SVG Export Plug-In . SVG Version: 6.00 Build 0)  -->
<!DOCTYPE svg PUBLIC "-//W3C//DTD SVG 1.1//EN" "http://www.w3.org/Graphics/SVG/1.1/DTD/svg11.dtd">
<svg version="1.1" id="Layer_1" xmlns="http://www.w3.org/2000/svg" xmlns:xlink="http://www.w3.org/1999/xlink" x="0px" y="0px"
	 width="126px" height="126px" viewBox="0 0 126 126" enable-background="new 0 0 126 126" xml:space="preserve">
<path fill="#4A90E2" d="M25.5,25.5c-20.7,20.7-20.7,54.3,0,75c20.7,20.7,54.3,20.7,75,0c20.7-20.7,20.7-54.3,0-75
	C79.8,4.8,46.2,4.8,25.5,25.5z M94.7,94.7c-17.5,17.5-46,17.5-63.5,0c-17.5-17.5-17.5-46,0-63.5c17.5-17.5,46-17.5,63.5,0
	C112.2,48.8,112.2,77.2,94.7,94.7z M88.5,71c0.3,0.4,0.3,0.9,0.1,1.4c-4.3,9.9-14.3,16.3-25.6,16.3c-11.5,0-21.6-6.4-25.7-16.4
	c-0.2-0.4-0.1-0.9,0.1-1.3c0.3-0.4,0.7-0.6,1.2-0.6c0,0,0,0,0,0l48.6,0.1C87.8,70.4,88.3,70.6,88.5,71z M43.1,47c0-1,0.4-2.1,1-3
	c0.7-1,1.7-1.6,2.7-1.6c1,0,1.9,0.4,2.6,1.2c0.7-0.7,1.6-1.2,2.6-1.2c1,0,2,0.6,2.7,1.6c0.6,0.9,1,2,1,3c0,1.6-1,3.5-3,5.5
	c-1.4,1.4-2.8,2.4-2.9,2.5c-0.1,0.1-0.3,0.1-0.5,0.1c-0.2,0-0.3,0-0.4-0.1C48.7,54.8,43.1,50.9,43.1,47z M71.2,47c0-1,0.4-2.1,1-3
	c0.7-1,1.7-1.6,2.7-1.6c1,0,1.9,0.4,2.6,1.2c0.7-0.7,1.6-1.2,2.6-1.2c1,0,2,0.6,2.7,1.6c0.6,0.9,1,2,1,3c0,1.6-1,3.5-3,5.5
	c-1.4,1.4-2.8,2.4-2.9,2.5c-0.1,0.1-0.3,0.1-0.5,0.1c-0.2,0-0.3,0-0.4-0.1C76.8,54.8,71.2,50.9,71.2,47z"/>
</svg>
