<?xml version="1.0" encoding="utf-8"?>
<!-- Generator: Adobe Illustrator 17.1.0, SVG Export Plug-In . SVG Version: 6.00 Build 0)  -->
<!DOCTYPE svg PUBLIC "-//W3C//DTD SVG 1.1//EN" "http://www.w3.org/Graphics/SVG/1.1/DTD/svg11.dtd">
<svg version="1.1" id="Layer_1" xmlns="http://www.w3.org/2000/svg" xmlns:xlink="http://www.w3.org/1999/xlink" x="0px" y="0px"
	 width="126px" height="126px" viewBox="0 0 126 126" enable-background="new 0 0 126 126" xml:space="preserve">
<path fill="#4A90E2" d="M100.5,25.5c-20.7-20.7-54.3-20.7-75,0c-20.7,20.7-20.7,54.3,0,75c20.7,20.7,54.3,20.7,75,0
	C121.2,79.8,121.2,46.2,100.5,25.5z M94.7,94.7c-17.5,17.5-46,17.5-63.5,0c-17.5-17.5-17.5-46,0-63.5c17.5-17.5,46-17.5,63.5,0
	C112.2,48.8,112.2,77.2,94.7,94.7z M85.6,81c0,1.9-1.6,3.5-3.5,3.5H43.9c-1.9,0-3.5-1.6-3.5-3.5s1.6-3.5,3.5-3.5h38.3
	C84.1,77.5,85.6,79.1,85.6,81z M43.5,51.3l-5.2-5.2c-1.2-1.2-1.2-3.2,0-4.5s3.2-1.2,4.5,0l9.5,9.5c0,0,0,0,0,0
	c1.2,1.1,1.9,2.7,1.9,4.4c0,3.4-2.8,6.2-6.2,6.2s-6.2-2.8-6.2-6.2C41.8,54,42.5,52.4,43.5,51.3z M87.6,41.7c1.2,1.2,1.2,3.2,0,4.5
	l-5.2,5.2c1.1,1.1,1.8,2.6,1.8,4.3c0,3.4-2.8,6.2-6.2,6.2c-3.4,0-6.2-2.8-6.2-6.2c0-1.7,0.7-3.3,1.9-4.4c0,0,0,0,0,0l9.5-9.5
	C84.4,40.5,86.4,40.5,87.6,41.7z"/>
</svg>
