<?xml version="1.0" encoding="utf-8"?>
<!-- Generator: Adobe Illustrator 17.1.0, SVG Export Plug-In . SVG Version: 6.00 Build 0)  -->
<!DOCTYPE svg PUBLIC "-//W3C//DTD SVG 1.1//EN" "http://www.w3.org/Graphics/SVG/1.1/DTD/svg11.dtd">
<svg version="1.1" id="Layer_1" xmlns="http://www.w3.org/2000/svg" xmlns:xlink="http://www.w3.org/1999/xlink" x="0px" y="0px"
	 width="126px" height="126px" viewBox="0 0 126 126" enable-background="new 0 0 126 126" xml:space="preserve">
<path fill="#4A90E2" d="M100.5,100.5c20.7-20.7,20.7-54.3,0-75c-20.7-20.7-54.3-20.7-75,0c-20.7,20.7-20.7,54.3,0,75
	C46.2,121.2,79.8,121.2,100.5,100.5z M94.7,31.3C105,41.5,109.2,55.6,107.4,69L90.9,55c0.9-1.8,1.4-3.7,1.4-5.8
	c0-7.3-5.9-13.2-13.2-13.2c-3,0-5.8,1-8,2.7L49.3,20.3C64.8,15.4,82.5,19,94.7,31.3z M31.3,31.3c4.3-4.3,9.2-7.5,14.5-9.7l23,19.5
	C67,43.3,66,46.1,66,49.2c0,7.3,5.9,13.2,13.2,13.2c4,0,7.5-1.8,10-4.6l17.7,15c-1.8,8.1-5.8,15.7-12,22c-17.5,17.5-46,17.5-63.5,0
	C13.8,77.2,13.8,48.8,31.3,31.3z M45.3,94h35.4c4.7,0,8.5-3.8,8.5-8.5v-9.8c0-4.7-3.8-8.5-8.5-8.5H45.3c-4.7,0-8.5,3.8-8.5,8.5v9.8
	C36.8,90.2,40.6,94,45.3,94z M77.1,70.6h5.3c1.3,0.9,2.3,2.3,2.7,3.9v4.2h-8V70.6z M77.1,82.7h8v4.2c-0.5,1.6-1.4,2.9-2.7,3.9h-5.3
	V82.7z M65,70.6h8v8h-8V70.6z M65,82.7h8v8h-8V82.7z M52.9,70.6h8v8h-8V70.6z M52.9,82.7h8v8h-8V82.7z M40.9,74.5
	c0.5-1.6,1.4-2.9,2.7-3.9h5.3v8h-8C40.9,78.7,40.9,74.5,40.9,74.5z M40.9,82.7h8v8h-5.3c-1.3-0.9-2.3-2.3-2.7-3.9
	C40.9,86.9,40.9,82.7,40.9,82.7z M41.8,50.1c0-3.4,2.8-6.2,6.2-6.2c3.4,0,6.2,2.8,6.2,6.2c0,3.4-2.8,6.2-6.2,6.2
	C44.6,56.3,41.8,53.5,41.8,50.1z"/>
</svg>
