<?xml version="1.0" encoding="utf-8"?>
<!-- Generator: Adobe Illustrator 17.1.0, SVG Export Plug-In . SVG Version: 6.00 Build 0)  -->
<!DOCTYPE svg PUBLIC "-//W3C//DTD SVG 1.1//EN" "http://www.w3.org/Graphics/SVG/1.1/DTD/svg11.dtd">
<svg version="1.1" id="Layer_1" xmlns="http://www.w3.org/2000/svg" xmlns:xlink="http://www.w3.org/1999/xlink" x="0px" y="0px"
	 width="126px" height="126px" viewBox="0 0 126 126" enable-background="new 0 0 126 126" xml:space="preserve">
<path fill="#4A90E2" d="M25.5,25.5c-20.7,20.7-20.7,54.3,0,75c20.7,20.7,54.3,20.7,75,0c20.7-20.7,20.7-54.3,0-75
	C79.8,4.8,46.2,4.8,25.5,25.5z M94.7,94.7c-17.5,17.5-46,17.5-63.5,0c-17.5-17.5-17.5-46,0-63.5c17.5-17.5,46-17.5,63.5,0
	C112.2,48.8,112.2,77.2,94.7,94.7z M64.1,69.3c10.1,0,19.1,5.7,22.9,14.6c0.7,1.5,0,3.3-1.6,3.9c-1.5,0.7-3.3,0-3.9-1.6
	c-2.9-6.7-9.7-11-17.4-11c-7.9,0-14.7,4.3-17.5,11c-0.5,1.2-1.6,1.8-2.8,1.8c-0.4,0-0.8-0.1-1.2-0.2c-1.5-0.6-2.3-2.4-1.6-3.9
	C44.7,75.1,53.8,69.3,64.1,69.3z M43.2,48.6c0-3.4,2.8-6.2,6.2-6.2c3.4,0,6.2,2.8,6.2,6.2c0,3.4-2.8,6.2-6.2,6.2
	C46,54.8,43.2,52.1,43.2,48.6z M71.3,48.6c0-3.4,2.8-6.2,6.2-6.2c3.4,0,6.2,2.8,6.2,6.2c0,3.4-2.8,6.2-6.2,6.2
	C74.1,54.8,71.3,52.1,71.3,48.6z M30.6,58c2.4-2.5,8.5-2.3,8.5-2.3c-1.6,2.3-1.9,4.2-1.9,4.2c-0.4,2.2-1.5,3.4-1.5,3.4
	c-2.6,2.7-5.2,0.1-5.2,0.1C27.8,60.9,30.6,58,30.6,58z M31,73.7c1.7-1.7,5.9-1.6,5.9-1.6c-1.1,1.6-1.3,2.9-1.3,2.9
	c-0.3,1.5-1.1,2.4-1.1,2.4c-1.8,1.9-3.6,0.1-3.6,0.1C29,75.7,31,73.7,31,73.7z"/>
</svg>
