<?xml version="1.0" encoding="utf-8"?>
<!-- Generator: Adobe Illustrator 17.1.0, SVG Export Plug-In . SVG Version: 6.00 Build 0)  -->
<!DOCTYPE svg PUBLIC "-//W3C//DTD SVG 1.1//EN" "http://www.w3.org/Graphics/SVG/1.1/DTD/svg11.dtd">
<svg version="1.1" id="Layer_1" xmlns="http://www.w3.org/2000/svg" xmlns:xlink="http://www.w3.org/1999/xlink" x="0px" y="0px"
	 width="126px" height="126px" viewBox="0 0 126 126" enable-background="new 0 0 126 126" xml:space="preserve">
<path fill="#4A90E2" d="M25.5,25.5c-20.7,20.7-20.7,54.3,0,75c20.7,20.7,54.3,20.7,75,0c20.7-20.7,20.7-54.3,0-75
	C79.8,4.8,46.2,4.8,25.5,25.5z M94.7,94.7c-17.5,17.5-46,17.5-63.5,0c-17.5-17.5-17.5-46,0-63.5c17.5-17.5,46-17.5,63.5,0
	C112.2,48.8,112.2,77.2,94.7,94.7z M84.7,87.5c-22.7,20-43.4,0-43.4,0C41.3,76,51,66.6,63,66.6S84.7,76,84.7,87.5z M43.5,47.6
	c0-2.7,2.2-4.9,4.9-4.9c2.7,0,4.9,2.2,4.9,4.9c0,2.7-2.2,4.9-4.9,4.9C45.7,52.5,43.5,50.3,43.5,47.6z M86.4,47.6
	c0,4.3-3.5,7.9-7.9,7.9s-7.9-3.5-7.9-7.9c0-4.3,3.5-7.9,7.9-7.9S86.4,43.3,86.4,47.6z"/>
</svg>
