<?xml version="1.0" encoding="utf-8"?>
<!-- Generator: Adobe Illustrator 17.1.0, SVG Export Plug-In . SVG Version: 6.00 Build 0)  -->
<!DOCTYPE svg PUBLIC "-//W3C//DTD SVG 1.1//EN" "http://www.w3.org/Graphics/SVG/1.1/DTD/svg11.dtd">
<svg version="1.1" id="Layer_1" xmlns="http://www.w3.org/2000/svg" xmlns:xlink="http://www.w3.org/1999/xlink" x="0px" y="0px"
	 width="126px" height="126px" viewBox="0 0 126 126" enable-background="new 0 0 126 126" xml:space="preserve">
<path fill="#4A90E2" d="M25.5,100.5C35.8,110.9,49.4,116,63,116s27.2-5.2,37.5-15.5c20.7-20.7,20.7-54.3,0-75
	C90.2,15.1,76.6,10,63,10c-13.6,0-27.2,5.2-37.5,15.5C4.8,46.2,4.8,79.8,25.5,100.5z M31.3,31.3C40,22.5,51.5,18.1,63,18.1
	s23,4.4,31.7,13.1c17.5,17.5,17.5,46,0,63.5c-8.7,8.7-20.2,13.1-31.7,13.1s-23-4.4-31.7-13.1c-2.2-2.2-4.1-4.5-5.7-7
	C14,70.3,16,46.6,31.3,31.3z M50.6,90.5h24.8c1.2,0,2.3,1.6,2.3,3.5s-1,3.5-2.3,3.5H50.6c-1.2,0-2.3-1.6-2.3-3.5
	S49.4,90.5,50.6,90.5z M34.7,62.3c-1.2-1.1-1.3-3-0.1-4.2c1.1-1.2,3-1.3,4.2-0.1c3.3,3.1,6.6,0.2,7-0.1c1.1-1,2.7-1,3.9-0.1
	c0.1,0.1,0.3,0.2,0.4,0.4c1.1,1.2,1,3.1-0.2,4.2C47.1,64.7,40.5,67.8,34.7,62.3z M76.2,62.2c-1.2-1.1-1.3-3-0.1-4.2
	c1.1-1.2,3-1.3,4.2-0.1c3.3,3.1,6.6,0.2,7-0.1c1.1-1,2.7-1,3.9-0.1c0.1,0.1,0.3,0.2,0.4,0.4c1.1,1.2,1,3.1-0.2,4.2
	C88.6,64.6,82,67.7,76.2,62.2z"/>
</svg>
