<?xml version="1.0" encoding="utf-8"?>
<!-- Generator: Adobe Illustrator 16.0.0, SVG Export Plug-In . SVG Version: 6.00 Build 0)  -->
<!DOCTYPE svg PUBLIC "-//W3C//DTD SVG 1.1//EN" "http://www.w3.org/Graphics/SVG/1.1/DTD/svg11.dtd">
<svg version="1.1" id="Layer_1" xmlns="http://www.w3.org/2000/svg" xmlns:xlink="http://www.w3.org/1999/xlink" x="0px" y="0px"
	 width="126px" height="126px" viewBox="0 0 126 126" enable-background="new 0 0 126 126" xml:space="preserve">
<path stroke="#6D6E70" stroke-width="0" stroke-linecap="round" stroke-linejoin="round" d="M25.487,100.517
	C35.828,110.859,49.414,116.03,63,116.029s27.172-5.173,37.516-15.517c20.686-20.684,20.684-54.341,0.002-75.024
	C90.173,15.144,76.586,9.971,63,9.971c-13.587,0-27.173,5.17-37.515,15.513C4.798,46.169,4.8,79.829,25.487,100.517z M31.272,31.27
	C40.02,22.523,51.51,18.15,63,18.15s22.98,4.374,31.729,13.123c17.494,17.494,17.492,45.962-0.002,63.455
	C85.98,103.474,74.49,107.848,63,107.849s-22.98-4.372-31.728-13.119c-2.188-2.187-4.101-4.546-5.741-7.033
	C14.049,70.287,15.964,46.578,31.272,31.27z M50.613,90.522h24.777c1.243,0,2.252,1.557,2.252,3.478s-1.009,3.478-2.252,3.478
	H50.613c-1.244,0-2.253-1.557-2.253-3.478S49.369,90.522,50.613,90.522z M34.659,62.284c-1.212-1.134-1.274-3.035-0.142-4.247
	c1.132-1.213,3.018-1.291,4.247-0.143c3.251,3.052,6.589,0.241,6.959-0.089c1.105-0.99,2.741-1.011,3.867-0.119
	c0.133,0.105,0.259,0.224,0.376,0.354c1.106,1.236,1.001,3.136-0.235,4.244C47.067,64.668,40.523,67.767,34.659,62.284z
	 M76.164,62.249c-1.212-1.134-1.274-3.035-0.142-4.247c1.132-1.213,3.018-1.291,4.247-0.143c3.251,3.052,6.589,0.241,6.959-0.089
	c1.105-0.99,2.741-1.011,3.867-0.119c0.133,0.105,0.259,0.224,0.376,0.354c1.106,1.236,1.001,3.136-0.235,4.244
	C88.572,64.633,82.028,67.732,76.164,62.249z"/>
</svg>
